<svg xmlns="http://www.w3.org/2000/svg" version="1.1" viewBox="-5.0 -10.0 110.0 135.0">
 <path d="m45.062 25.812-14.918 11.672-10.797 0.17188c-1.707 0.027344-3.0742 1.418-3.0742 3.125v18.863c0 1.7578 1.4492 3.1719 3.207 3.125l10.664-0.28125 14.918 11.672c2.0508 1.6055 5.0508 0.14453 5.0508-2.4609v-43.426c0-2.6016-2.9961-4.0664-5.0508-2.4609zm16.27 10.184-5.0078 5.9961c2.3828 1.9883 3.7461 4.9062 3.7461 8.0039 0 3.0898-1.3594 6.0039-3.7305 7.9922l5.0195 5.9883c4.1484-3.4766 6.5234-8.5742 6.5234-13.98 0-5.418-2.3867-10.52-6.5508-14zm9.9453-11.344-4.7812 6.1797c5.9844 4.6289 9.418 11.613 9.418 19.168 0 7.5508-3.4297 14.535-9.4102 19.164l4.7812 6.1797c7.9062-6.1211 12.441-15.355 12.441-25.344-0.003906-9.9883-4.5391-19.227-12.449-25.348z"/>
</svg>