<svg xmlns="http://www.w3.org/2000/svg" version="1.1" viewBox="-5.0 -10.0 110.0 135.0">
 <path d="m43.648 25.828-14.918 11.672-10.797 0.17188c-1.707 0.027344-3.0742 1.418-3.0742 3.125v18.863c0 1.7578 1.4492 3.1719 3.207 3.125l10.664-0.28125 14.918 11.672c2.0508 1.6055 5.0508 0.14453 5.0508-2.4609v-43.426c0-2.6055-3-4.0664-5.0508-2.4609zm41.492 14.781-5.5234-5.5234-9.3906 9.3906-9.3906-9.3906-5.5234 5.5234 9.3867 9.3906-9.3906 9.3906 5.5234 5.5234 9.3906-9.3906 9.3906 9.3906 5.5234-5.5234-9.3867-9.3906z"/>
</svg>