<svg width="32" height="32" viewbox="2000 0 1500 1500" fill="none">
    <circle cx="2750" cy="750" r="600" fill="orange" />
    <path
        d="M 2296.46 639.11 C 2296.46 474.928 2346.35 336.274 2446.13 223.148 C 2545.91 110.023 2664.2 53.4604 2801.02 53.4594 C 2865.76 53.4604 2914.82 64.6394 2948.19 86.9967 C 2981.56 109.356 2998.24 136.886 2998.24 169.588 C 2998.24 189.612 2990.73 206.297 2975.72 219.644 C 2960.7 232.993 2943.85 239.667 2925.16 239.666 C 2900.47 239.667 2864.76 230.991 2818.04 213.637 C 2763.31 193.616 2717.93 183.605 2681.89 183.604 C 2586.45 183.605 2511.37 223.816 2456.64 304.238 C 2401.91 384.661 2374.55 480.601 2374.55 592.058 C 2374.55 673.482 2395.41 735.217 2437.12 777.264 C 2478.83 819.311 2550.41 840.334 2651.86 840.334 C 2680.56 840.334 2710.92 839.666 2742.96 838.331 C 2770.32 837.664 2788.01 837.331 2796.02 837.33 C 2870.77 837.331 2924.99 861.19 2958.7 908.91 C 2992.4 956.63 3009.25 1017.86 3009.25 1092.61 C 3009.25 1196.06 2981.39 1279.82 2925.66 1343.89 C 2869.93 1407.96 2797.69 1440 2708.92 1440 C 2620.16 1440 2575.77 1410.3 2575.77 1350.9 C 2575.77 1307.52 2597.13 1285.83 2639.84 1285.83 C 2654.53 1285.83 2687.23 1292.84 2737.95 1306.85 C 2760.65 1313.53 2779.33 1316.86 2794.02 1316.86 C 2826.05 1316.86 2857.92 1302.51 2889.62 1273.82 C 2921.32 1245.12 2937.17 1202.07 2937.17 1144.67 C 2937.17 1062.58 2900.47 1021.53 2827.05 1021.54 C 2813.7 1021.53 2797.69 1022.2 2779 1023.54 C 2722.94 1028.21 2681.89 1030.55 2655.86 1030.55 C 2549.74 1030.55 2463.31 995.673 2396.57 925.929 C 2329.83 856.185 2296.46 760.579 2296.46 639.11 L 2296.46 639.11 Z"
        fill="black" />
</svg>