<svg xmlns="http://www.w3.org/2000/svg" version="1.1" width="192" height="192" fill="black"><path d="M 18.05771365940052 51 L 59.626933041053576 27 L 59.626933041053576 99 L 18.05771365940052 75 Z"></path><path d="M 18.05771365940052 141 L 18.05771365940052 93 L 59.626933041053576 117 L 59.626933041053576 165 Z"></path><path d="M 132.37306695894642 75 L 132.37306695894642 27 L 173.94228634059948 51 L 173.94228634059948 99 Z"></path><path d="M 96 6 L 116.78460969082653 18 L 116.78460969082653 66 L 96 54 L 96 72 L 116.78460969082653 84 L 116.78460969082653 126 L 132.37306695894642 117 L 132.37306695894642 93 L 132.37306695894642 93 L 173.94228634059948 117 L 173.94228634059948 141 L 96 186 L 75.21539030917347 174 L 75.21539030917347 126 L 96 138 L 96 120 L 75.21539030917347 108 L 75.21539030917347 18 Z"></path></svg>