<svg xmlns="http://www.w3.org/2000/svg" version="1.1" width="1500" height="1500" fill="none">
    <circle cx="750" cy="750" r="600" fill="orange" />
    <path
        d="M 296.46 639.11 C 296.46 474.928 346.35 336.274 446.13 223.148 C 545.91 110.023 664.2 53.4604 801.02 53.4594 C 865.76 53.4604 914.82 64.6394 948.19 86.9967 C 981.56 109.356 998.24 136.886 998.24 169.588 C 998.24 189.612 990.73 206.297 975.72 219.644 C 960.7 232.993 943.85 239.667 925.16 239.666 C 900.47 239.667 864.76 230.991 818.04 213.637 C 763.31 193.616 717.93 183.605 681.89 183.604 C 586.45 183.605 511.37 223.816 456.64 304.238 C 401.91 384.661 374.55 480.601 374.55 592.058 C 374.55 673.482 395.41 735.217 437.12 777.264 C 478.83 819.311 550.41 840.334 651.86 840.334 C 680.56 840.334 710.92 839.666 742.96 838.331 C 770.32 837.664 788.01 837.331 796.02 837.33 C 870.77 837.331 924.99 861.19 958.7 908.91 C 992.4 956.63 1009.25 1017.86 1009.25 1092.61 C 1009.25 1196.06 981.39 1279.82 925.66 1343.89 C 869.93 1407.96 797.69 1440 708.92 1440 C 620.16 1440 575.77 1410.3 575.77 1350.9 C 575.77 1307.52 597.13 1285.83 639.84 1285.83 C 654.53 1285.83 687.23 1292.84 737.95 1306.85 C 760.65 1313.53 779.33 1316.86 794.02 1316.86 C 826.05 1316.86 857.92 1302.51 889.62 1273.82 C 921.32 1245.12 937.17 1202.07 937.17 1144.67 C 937.17 1062.58 900.47 1021.53 827.05 1021.54 C 813.7 1021.53 797.69 1022.2 779 1023.54 C 722.94 1028.21 681.89 1030.55 655.86 1030.55 C 549.74 1030.55 463.31 995.673 396.57 925.929 C 329.83 856.185 296.46 760.579 296.46 639.11 L 296.46 639.11 Z"
        fill="black" stroke-width="20" stroke="white"/>
</svg>